<svg width="96" height="82" viewBox="0 0 96 82" fill="none" xmlns="http://www.w3.org/2000/svg">
<path d="M64.5 64L93.5 35V64" stroke="#FFEDD6" stroke-width="4"/>
<path d="M31.5 64L2.5 35V64" stroke="#FFEDD6" stroke-width="4"/>
<path fill-rule="evenodd" clip-rule="evenodd" d="M77.852 28.4609L70.2656 36.0473L72.3898 39.3854L77.2451 34.8335L81.7969 42.1165L84.528 39.3854L77.852 28.4609Z" fill="#FFEDD6"/>
<path fill-rule="evenodd" clip-rule="evenodd" d="M18.3088 28.4609L25.8952 36.0473L23.7711 39.3854L18.9158 34.8335L14.3639 42.1165L11.6328 39.3854L18.3088 28.4609Z" fill="#FFEDD6"/>
<path d="M73.2938 74.7125C71.4413 75.6388 69.47 76.1019 67.38 76.1019C65.5275 76.1019 63.8413 75.8169 62.3213 75.2469C59.0438 74.0356 56.2531 71.6725 53.9494 68.1575C53.3556 67.3025 52.2513 65.6637 50.6363 63.2412C49.0213 60.8187 47.9763 59.275 47.5013 58.61C46.67 57.3037 46.005 56.5912 45.5063 56.4725V56.1162C45.53 56.1162 45.5538 56.1162 45.5775 56.1162C45.625 56.1162 45.6725 56.1162 45.72 56.1162C45.7675 56.1162 45.815 56.1162 45.8625 56.1162C45.91 56.1162 45.9694 56.1162 46.0406 56.1162C46.1119 56.1162 46.1713 56.1162 46.2188 56.1162C47.43 56.1162 48.5463 55.8431 49.5675 55.2969C51.1113 54.4419 51.8831 52.8625 51.8831 50.5587C51.8831 48.8725 51.4081 47.5781 50.4581 46.6756C49.5081 45.7494 48.3681 45.2862 47.0381 45.2862H44.3306V66.0556C44.3306 66.6731 44.5563 67.2075 45.0075 67.6587C45.4588 68.0862 45.9931 68.3 46.6106 68.3H47.0738V68.6562H36.2438V68.3H36.7069C37.3006 68.3 37.8231 68.0862 38.2744 67.6587C38.7256 67.2312 38.9631 66.7087 38.9869 66.0912V46.3194C38.9631 45.7019 38.7256 45.1794 38.2744 44.7519C37.8469 44.3006 37.3244 44.075 36.7069 44.075H36.2438V43.7187H48.4631C51.5269 43.7187 53.9019 44.4194 55.5881 45.8206C56.9181 46.9131 57.5831 48.4569 57.5831 50.4519C57.5831 52.4469 56.93 54.0737 55.6238 55.3325C54.3413 56.5675 52.8688 57.185 51.2063 57.185C51.0638 57.185 50.9094 57.1731 50.7431 57.1494C51.7169 57.6719 52.5244 58.2537 53.1656 58.895C53.8306 59.5362 54.4006 60.1419 54.8756 60.7119C55.3744 61.2819 55.79 61.7925 56.1225 62.2437C56.4788 62.6712 56.9419 63.2531 57.5119 63.9894C58.0819 64.7019 58.6756 65.45 59.2931 66.2337C59.9106 67.0175 60.5875 67.825 61.3238 68.6562C62.0838 69.4638 62.915 70.2356 63.8175 70.9719C64.7438 71.7081 65.6819 72.3138 66.6319 72.7888C68.6506 73.81 70.8713 74.3325 73.2938 74.3563V74.7125Z" fill="#FFEDD6"/>
<path d="M48 62H45.5V66H51L48 62Z" fill="#FFEDD6"/>
<path d="M3.46875 68.9102H50.9687" stroke="#FFEDD6" stroke-width="1.48438"/>
<path d="M14 65L48 5L82 65" stroke="#FFEDD6" stroke-width="4"/>
<path d="M95.5 62H58L61.5 66H95.5V62Z" fill="#FFEDD6"/>
<path d="M52 68H0.5V70H53.5L52 68Z" fill="#FFEDD6"/>
<path d="M64.6576 70H95.5V68H62.5853L64.6576 70Z" fill="#FFEDD6"/>
<path d="M37.5 62H0.5V66H37.5V62Z" fill="#FFEDD6"/>
</svg>
