<svg width="36" height="36" viewBox="0 0 36 36" fill="none" xmlns="http://www.w3.org/2000/svg">
<path d="M30.4755 6.73796C28.1805 5.70296 25.7205 4.93796 23.148 4.50296C23.1251 4.49856 23.1014 4.5014 23.0801 4.51107C23.0589 4.52075 23.0412 4.53678 23.0295 4.55696C22.7145 5.11046 22.3635 5.83196 22.1175 6.40196C19.3891 5.99432 16.6154 5.99432 13.887 6.40196C13.613 5.77025 13.304 5.1543 12.9615 4.55696C12.9499 4.53653 12.9323 4.52014 12.9112 4.50995C12.89 4.49977 12.8662 4.49628 12.843 4.49996C10.272 4.93496 7.812 5.69996 5.5155 6.73646C5.49575 6.74475 5.479 6.75888 5.4675 6.77696C0.799504 13.6395 -0.479996 20.3325 0.148504 26.9415C0.150253 26.9576 0.155277 26.9733 0.163271 26.9875C0.171265 27.0017 0.182062 27.0141 0.195004 27.024C2.91959 29.0076 5.95851 30.5187 9.1845 31.494C9.20699 31.5009 9.23105 31.5009 9.25352 31.4939C9.276 31.4869 9.29586 31.4734 9.3105 31.455C10.0035 30.525 10.6215 29.5425 11.1495 28.5105C11.181 28.4505 11.151 28.3785 11.088 28.3545C10.119 27.9895 9.18013 27.5492 8.28 27.0375C8.26383 27.0282 8.2502 27.0151 8.24034 26.9993C8.23048 26.9835 8.22469 26.9655 8.2235 26.9469C8.22231 26.9284 8.22576 26.9098 8.23352 26.8928C8.24129 26.8759 8.25314 26.8612 8.268 26.85C8.457 26.7105 8.646 26.565 8.826 26.4195C8.84221 26.4064 8.86172 26.398 8.88238 26.3954C8.90304 26.3927 8.92402 26.3959 8.943 26.4045C14.8335 29.0505 21.213 29.0505 27.0345 26.4045C27.0535 26.3954 27.0747 26.3918 27.0957 26.3942C27.1166 26.3966 27.1365 26.4048 27.153 26.418C27.333 26.565 27.5205 26.7105 27.711 26.85C27.726 26.8609 27.7381 26.8755 27.7461 26.8923C27.7541 26.909 27.7578 26.9276 27.7569 26.9461C27.756 26.9647 27.7505 26.9828 27.741 26.9987C27.7314 27.0146 27.718 27.028 27.702 27.0375C26.805 27.5535 25.872 27.99 24.8925 28.353C24.8775 28.3584 24.8638 28.367 24.8523 28.3782C24.8409 28.3894 24.8319 28.4029 24.8261 28.4178C24.8203 28.4327 24.8177 28.4487 24.8186 28.4647C24.8194 28.4806 24.8236 28.4962 24.831 28.5105C25.371 29.541 25.989 30.522 26.6685 31.4535C26.6826 31.4726 26.7023 31.4869 26.7249 31.4944C26.7474 31.5019 26.7717 31.5023 26.7945 31.4955C30.026 30.5229 33.0699 29.0111 35.7975 27.024C35.8108 27.0147 35.822 27.0026 35.8303 26.9886C35.8385 26.9747 35.8437 26.9591 35.8455 26.943C36.5955 19.302 34.5885 12.663 30.522 6.77996C30.512 6.76084 30.4955 6.74594 30.4755 6.73796ZM12.03 22.917C10.257 22.917 8.7945 21.3135 8.7945 19.347C8.7945 17.379 10.2285 15.777 12.03 15.777C13.845 15.777 15.294 17.3925 15.2655 19.347C15.2655 21.315 13.8315 22.917 12.03 22.917ZM23.9925 22.917C22.218 22.917 20.757 21.3135 20.757 19.347C20.757 17.379 22.1895 15.777 23.9925 15.777C25.8075 15.777 27.2565 17.3925 27.228 19.347C27.228 21.315 25.809 22.917 23.9925 22.917Z" fill="#FFEDD6"/>
</svg>
