<svg width="36" height="36" viewBox="0 0 36 36" fill="none" xmlns="http://www.w3.org/2000/svg">
<path d="M32.6768 13.0152C32.6768 14.9731 32.4063 16.6475 31.8653 18.0386C31.3244 19.4297 30.5386 20.4988 29.5082 21.2459C28.4778 21.993 27.4473 22.534 26.4169 22.8689C25.3864 23.2037 24.1756 23.4485 22.7845 23.603C23.7635 24.4274 24.2529 25.7412 24.2529 27.5445V34.5H13.5105V29.4766C12.6862 29.6311 11.9262 29.7084 11.2307 29.7084C10.5351 29.7084 9.94262 29.644 9.45316 29.5152C8.9637 29.3864 8.52576 29.219 8.13934 29.0129C7.75293 28.8068 7.44379 28.5878 7.21194 28.356C6.98009 28.1241 6.78689 27.9052 6.63232 27.6991C6.47775 27.493 6.37471 27.3126 6.32319 27.1581L6.2459 26.9262C5.93677 26.2049 5.58899 25.5867 5.20258 25.0714C4.81616 24.5562 4.49415 24.2213 4.23653 24.0667L3.85012 23.8349C3.28337 23.3712 3 23.0492 3 22.8689C3 22.6885 3.18033 22.5726 3.54098 22.5211H4.00468C4.62295 22.5726 5.21546 22.7787 5.7822 23.1393C6.34895 23.5 6.73536 23.8607 6.94145 24.2213L7.32787 24.685C8.71897 27.1066 10.8056 27.6991 13.5878 26.4625C13.7424 25.226 14.2061 24.2728 14.9789 23.603C13.5878 23.4485 12.377 23.2037 11.3466 22.8689C10.3162 22.534 9.29859 21.993 8.29391 21.2459C7.28923 20.4988 6.50351 19.4297 5.93677 18.0386C5.37002 16.6475 5.08665 14.9731 5.08665 13.0152C5.08665 10.7998 5.83372 8.89344 7.32787 7.29625C6.65808 5.59602 6.73536 3.6897 7.55972 1.57728C7.71429 1.62881 7.92037 1.61593 8.17799 1.53864C8.4356 1.46136 9.07963 1.61593 10.1101 2.00234C11.1405 2.38876 12.274 2.99415 13.5105 3.8185C15.2108 3.3548 17.0141 3.09719 18.9204 3.04567C20.7752 3.09719 22.5785 3.3548 24.3302 3.8185C25.5152 2.99415 26.6101 2.40164 27.6148 2.04098C28.6194 1.68033 29.3021 1.5 29.6628 1.5L30.2037 1.57728C31.0796 3.6897 31.1569 5.59602 30.4356 7.29625C31.9297 8.89344 32.6768 10.7998 32.6768 13.0152ZM5.47307 23.4871C5.52459 23.3583 5.46019 23.2553 5.27986 23.178C5.09953 23.1007 4.98361 23.1265 4.93208 23.2553C4.88056 23.3841 4.94496 23.4871 5.12529 23.5644C5.30562 23.6417 5.42155 23.6159 5.47307 23.4871ZM6.36183 24.4532C6.49063 24.3501 6.46487 24.2084 6.28454 24.0281C6.10422 23.8478 5.94965 23.8091 5.82084 23.9122C5.69204 24.0152 5.7178 24.1569 5.89813 24.3372C6.07845 24.5176 6.23302 24.5562 6.36183 24.4532ZM7.1733 25.6897C7.32787 25.5867 7.32787 25.4192 7.1733 25.1874C7.01874 24.9555 6.86417 24.8911 6.7096 24.9941C6.55504 25.0972 6.55504 25.2646 6.7096 25.4965C6.86417 25.7283 7.01874 25.7927 7.1733 25.6897ZM8.37119 26.9262C8.5 26.7717 8.46136 26.5785 8.25527 26.3466C8.04918 26.1148 7.86885 26.0761 7.71429 26.2307C7.55972 26.3852 7.59836 26.5785 7.83021 26.8103C8.06206 27.0422 8.24239 27.0808 8.37119 26.9262ZM9.9555 27.5831C10.007 27.4028 9.8911 27.2611 9.60773 27.1581C9.32436 27.055 9.15691 27.1066 9.10539 27.3126C9.05386 27.5187 9.16979 27.6604 9.45316 27.7377C9.73653 27.815 9.90398 27.7635 9.9555 27.5831ZM11.2693 28.0082C11.5785 28.0082 11.733 27.9052 11.733 27.6991C11.733 27.493 11.5785 27.3899 11.2693 27.3899C10.9602 27.3899 10.8056 27.493 10.8056 27.6991C10.8056 27.9052 10.9602 28.0082 11.2693 28.0082ZM12.9696 27.8536C13.1241 27.8021 13.24 27.7377 13.3173 27.6604C13.3946 27.5831 13.4075 27.5187 13.356 27.4672C13.356 27.2096 13.2014 27.1066 12.8923 27.1581C12.7377 27.2096 12.6218 27.274 12.5445 27.3513C12.4672 27.4286 12.4543 27.5187 12.5059 27.6218C12.5059 27.8279 12.6604 27.9052 12.9696 27.8536Z" fill="#FFEDD6"/>
</svg>
