<svg width="148" height="114" viewBox="0 0 148 114" fill="none" xmlns="http://www.w3.org/2000/svg">
<g filter="url(#filter0_f_633_11861)">
<circle cx="73.5" cy="55" r="39" fill="url(#paint0_radial_633_11861)"/>
</g>
<path d="M90.5 64L119.5 35V64" stroke="#FFEDD6" stroke-width="4"/>
<path d="M57.5 64L28.5 35V64" stroke="#FFEDD6" stroke-width="4"/>
<path fill-rule="evenodd" clip-rule="evenodd" d="M103.852 28.4609L96.2656 36.0473L98.3898 39.3854L103.245 34.8335L107.797 42.1165L110.528 39.3854L103.852 28.4609Z" fill="#FFEDD6"/>
<path fill-rule="evenodd" clip-rule="evenodd" d="M44.3088 28.4609L51.8952 36.0473L49.7711 39.3854L44.9158 34.8335L40.3639 42.1165L37.6328 39.3854L44.3088 28.4609Z" fill="#FFEDD6"/>
<path d="M99.2938 74.7125C97.4413 75.6388 95.47 76.1019 93.38 76.1019C91.5275 76.1019 89.8413 75.8169 88.3213 75.2469C85.0438 74.0356 82.2531 71.6725 79.9494 68.1575C79.3556 67.3025 78.2513 65.6637 76.6363 63.2412C75.0213 60.8187 73.9763 59.275 73.5013 58.61C72.67 57.3037 72.005 56.5912 71.5063 56.4725V56.1162C71.53 56.1162 71.5538 56.1162 71.5775 56.1162C71.625 56.1162 71.6725 56.1162 71.72 56.1162C71.7675 56.1162 71.815 56.1162 71.8625 56.1162C71.91 56.1162 71.9694 56.1162 72.0406 56.1162C72.1119 56.1162 72.1713 56.1162 72.2188 56.1162C73.43 56.1162 74.5463 55.8431 75.5675 55.2969C77.1113 54.4419 77.8831 52.8625 77.8831 50.5587C77.8831 48.8725 77.4081 47.5781 76.4581 46.6756C75.5081 45.7494 74.3681 45.2862 73.0381 45.2862H70.3306V66.0556C70.3306 66.6731 70.5563 67.2075 71.0075 67.6587C71.4588 68.0862 71.9931 68.3 72.6106 68.3H73.0738V68.6562H62.2438V68.3H62.7069C63.3006 68.3 63.8231 68.0862 64.2744 67.6587C64.7256 67.2312 64.9631 66.7087 64.9869 66.0912V46.3194C64.9631 45.7019 64.7256 45.1794 64.2744 44.7519C63.8469 44.3006 63.3244 44.075 62.7069 44.075H62.2438V43.7187H74.4631C77.5269 43.7187 79.9019 44.4194 81.5881 45.8206C82.9181 46.9131 83.5831 48.4569 83.5831 50.4519C83.5831 52.4469 82.93 54.0737 81.6238 55.3325C80.3413 56.5675 78.8688 57.185 77.2063 57.185C77.0638 57.185 76.9094 57.1731 76.7431 57.1494C77.7169 57.6719 78.5244 58.2537 79.1656 58.895C79.8306 59.5362 80.4006 60.1419 80.8756 60.7119C81.3744 61.2819 81.79 61.7925 82.1225 62.2437C82.4788 62.6712 82.9419 63.2531 83.5119 63.9894C84.0819 64.7019 84.6756 65.45 85.2931 66.2337C85.9106 67.0175 86.5875 67.825 87.3238 68.6562C88.0838 69.4638 88.915 70.2356 89.8175 70.9719C90.7438 71.7081 91.6819 72.3138 92.6319 72.7888C94.6506 73.81 96.8713 74.3325 99.2938 74.3563V74.7125Z" fill="#FFEDD6"/>
<path d="M74 62H71.5V66H77L74 62Z" fill="#FFEDD6"/>
<path d="M29.4688 68.9102H76.9687" stroke="#FFEDD6" stroke-width="1.48438"/>
<path d="M40 65L74 5L108 65" stroke="#FFEDD6" stroke-width="4"/>
<path d="M121.5 62H84L87.5 66H121.5V62Z" fill="#FFEDD6"/>
<path d="M78 68H26.5V70H79.5L78 68Z" fill="#FFEDD6"/>
<path d="M90.6576 70H121.5V68H88.5853L90.6576 70Z" fill="#FFEDD6"/>
<path d="M63.5 62H26.5V66H63.5V62Z" fill="#FFEDD6"/>
<path d="M26.54 110.08C25.292 110.704 23.964 111.016 22.556 111.016C21.308 111.016 20.172 110.824 19.148 110.44C16.94 109.624 15.06 108.032 13.508 105.664C13.108 105.088 12.364 103.984 11.276 102.352C10.188 100.72 9.484 99.68 9.164 99.232C8.604 98.352 8.156 97.872 7.82 97.792V97.552C7.836 97.552 7.852 97.552 7.868 97.552C7.9 97.552 7.932 97.552 7.964 97.552C7.996 97.552 8.028 97.552 8.06 97.552C8.092 97.552 8.132 97.552 8.18 97.552C8.228 97.552 8.268 97.552 8.3 97.552C9.116 97.552 9.868 97.368 10.556 97C11.596 96.424 12.116 95.36 12.116 93.808C12.116 92.672 11.796 91.8 11.156 91.192C10.516 90.568 9.748 90.256 8.852 90.256H7.028V104.248C7.028 104.664 7.18 105.024 7.484 105.328C7.788 105.616 8.148 105.76 8.564 105.76H8.876V106H1.58V105.76H1.892C2.292 105.76 2.644 105.616 2.948 105.328C3.252 105.04 3.412 104.688 3.428 104.272V90.952C3.412 90.536 3.252 90.184 2.948 89.896C2.66 89.592 2.308 89.44 1.892 89.44H1.58V89.2H9.812C11.876 89.2 13.476 89.672 14.612 90.616C15.508 91.352 15.956 92.392 15.956 93.736C15.956 95.08 15.516 96.176 14.636 97.024C13.772 97.856 12.78 98.272 11.66 98.272C11.564 98.272 11.46 98.264 11.348 98.248C12.004 98.6 12.548 98.992 12.98 99.424C13.428 99.856 13.812 100.264 14.132 100.648C14.468 101.032 14.748 101.376 14.972 101.68C15.212 101.968 15.524 102.36 15.908 102.856C16.292 103.336 16.692 103.84 17.108 104.368C17.524 104.896 17.98 105.44 18.476 106C18.988 106.544 19.548 107.064 20.156 107.56C20.78 108.056 21.412 108.464 22.052 108.784C23.412 109.472 24.908 109.824 26.54 109.84V110.08ZM19.3747 105.76C19.7907 105.76 20.1427 105.616 20.4307 105.328C20.7347 105.024 20.8947 104.664 20.9107 104.248V90.88C20.8627 90.32 20.5987 89.904 20.1187 89.632C19.8787 89.504 19.6307 89.44 19.3747 89.44H19.0627V89.2H28.2547C28.7507 89.2 29.2947 89.152 29.8867 89.056C30.4787 88.96 30.8947 88.864 31.1347 88.768V92.968H30.8947V92.68C30.8947 91.96 30.6787 91.384 30.2467 90.952C29.8307 90.504 29.2627 90.264 28.5427 90.232H24.5107V97.216H27.6787C28.2707 97.2 28.7587 97 29.1427 96.616C29.5267 96.216 29.7187 95.728 29.7187 95.152V94.936H29.9587V100.48H29.7187V100.288C29.7187 99.488 29.3987 98.896 28.7587 98.512C28.4387 98.336 28.0867 98.24 27.7027 98.224H24.5107V104.968H27.6547C28.8227 104.968 29.7987 104.632 30.5827 103.96C31.3827 103.288 31.9747 102.336 32.3587 101.104H32.5987L31.4947 106H19.0627V105.76H19.3747ZM50.9073 105.76H51.1233V106H43.4673V105.76H43.6833C44.0353 105.76 44.2913 105.656 44.4513 105.448C44.6273 105.224 44.7153 105.016 44.7153 104.824C44.7153 104.632 44.6753 104.44 44.5953 104.248L43.4193 101.296H37.8033L36.5553 104.248C36.4753 104.456 36.4353 104.656 36.4353 104.848C36.4353 105.024 36.5153 105.224 36.6753 105.448C36.8513 105.656 37.1233 105.76 37.4913 105.76H37.6833V106H32.5473V105.76H32.7633C33.1313 105.76 33.4993 105.648 33.8673 105.424C34.2353 105.2 34.5393 104.864 34.7793 104.416L40.3233 91.864C41.0753 90.28 41.4753 89.232 41.5233 88.72H41.7393L48.8673 104.368C49.1073 104.832 49.4113 105.184 49.7793 105.424C50.1473 105.648 50.5233 105.76 50.9073 105.76ZM38.2113 100.288H43.0113L40.6833 94.384L38.2113 100.288ZM51.695 105.76C52.111 105.76 52.463 105.616 52.751 105.328C53.055 105.024 53.215 104.664 53.231 104.248V90.952C53.215 90.536 53.055 90.184 52.751 89.896C52.463 89.592 52.111 89.44 51.695 89.44H51.383V89.2H58.679L58.655 89.44H58.367C57.951 89.44 57.591 89.592 57.287 89.896C56.983 90.184 56.831 90.536 56.831 90.952V104.968H59.975C61.143 104.968 62.119 104.632 62.903 103.96C63.703 103.288 64.295 102.336 64.679 101.104H64.919L63.815 106H51.383V105.76H51.695ZM87.8921 105.76H88.2761V106H81.0761V105.784H81.4361C81.7081 105.784 81.9401 105.68 82.1321 105.472C82.3241 105.248 82.4041 105.008 82.3721 104.752L81.4361 96.04L76.9241 103.816C76.3321 104.808 76.0281 105.696 76.0121 106.48H75.7721L69.6041 96.112L68.6681 104.752C68.6361 105.008 68.7161 105.248 68.9081 105.472C69.1001 105.68 69.3321 105.784 69.6041 105.784H69.9641V106H64.9481V105.76H65.3321C65.7801 105.76 66.1641 105.624 66.4841 105.352C66.8201 105.08 67.0201 104.712 67.0841 104.248L69.0761 88.864H69.2921L76.7321 101.104L83.8841 88.864H84.1001L86.1401 104.248C86.2201 104.712 86.4201 105.08 86.7401 105.352C87.0761 105.624 87.4601 105.76 87.8921 105.76Z" fill="#FFEDD6"/>
<path d="M93.0071 89.176C93.2791 89.176 93.7751 89.176 94.4951 89.176C95.2151 89.176 96.5511 89.184 98.5031 89.2C101.335 89.232 103.575 90 105.223 91.504C106.871 92.992 107.695 95.032 107.695 97.624C107.695 100.2 106.871 102.24 105.223 103.744C103.575 105.248 101.335 106 98.5031 106H89.7911V105.76H90.1031C90.5031 105.76 90.8471 105.624 91.1351 105.352C91.4391 105.064 91.6071 104.72 91.6391 104.32V90.28C89.8471 90.408 88.5191 90.824 87.6551 91.528C87.2231 91.864 86.8871 92.208 86.6471 92.56C86.3911 92.912 86.1431 93.336 85.9031 93.832L85.6631 93.736C86.0471 92.136 86.8471 90.984 88.0631 90.28C89.2951 89.56 90.9431 89.192 93.0071 89.176ZM98.2151 104.992C99.9271 104.992 101.279 104.328 102.271 103C103.279 101.672 103.783 99.872 103.783 97.6C103.783 95.328 103.279 93.536 102.271 92.224C101.279 90.912 99.9431 90.256 98.2631 90.256C98.2471 90.256 98.2311 90.256 98.2151 90.256H95.2391V104.992H98.2151ZM131.145 110.392C129.401 111.272 127.633 111.416 125.841 110.824C123.937 110.216 122.297 108.92 120.921 106.936C120.185 105.88 119.553 104.656 119.025 103.264L118.257 101.224H112.593L111.321 104.248C111.241 104.456 111.201 104.624 111.201 104.752C111.201 104.88 111.225 105.024 111.273 105.184C111.337 105.328 111.457 105.464 111.633 105.592C111.825 105.704 112.033 105.76 112.257 105.76H112.449V106H107.313V105.76H107.529C107.897 105.76 108.257 105.656 108.609 105.448C108.977 105.224 109.281 104.896 109.521 104.464L114.873 92.248C114.249 90.84 113.585 89.872 112.881 89.344C112.289 88.896 111.721 88.672 111.177 88.672C110.649 88.672 110.153 88.752 109.689 88.912L109.641 88.672C110.793 88.08 111.897 87.784 112.953 87.784C114.265 87.784 115.441 88.296 116.481 89.32C117.505 90.328 118.409 91.784 119.193 93.688L122.673 102.28C123.985 105.528 125.329 107.76 126.705 108.976C127.265 109.472 127.841 109.816 128.433 110.008C129.025 110.2 129.521 110.296 129.921 110.296C130.337 110.296 130.737 110.248 131.121 110.152L131.145 110.392ZM113.001 100.192H117.897L116.217 95.752C116.137 95.528 116.025 95.224 115.881 94.84C115.737 94.44 115.641 94.16 115.593 94L113.001 100.192ZM132.288 95.272C132 94.664 131.856 94.088 131.856 93.544C131.856 92.984 131.928 92.472 132.072 92.008C132.216 91.528 132.456 91.064 132.792 90.616C133.128 90.152 133.6 89.768 134.208 89.464C135.04 89.032 136.04 88.816 137.208 88.816C138.744 88.816 140.2 89.208 141.576 89.992C143.384 91.016 144.64 92.432 145.344 94.24C145.744 95.232 145.944 96.296 145.944 97.432C145.944 100.104 144.976 102.256 143.04 103.888C141.12 105.52 138.608 106.336 135.504 106.336C132.416 106.336 129.896 105.52 127.944 103.888C126.008 102.256 125.04 100.112 125.04 97.456C125.04 95.472 125.6 93.752 126.72 92.296C127.856 90.824 129.384 89.824 131.304 89.296L131.448 89.512C130.632 90.2 130.016 91.208 129.6 92.536C129.184 93.864 128.976 95.296 128.976 96.832C128.976 99.424 129.576 101.488 130.776 103.024C131.976 104.56 133.544 105.328 135.48 105.328C137.432 105.328 139 104.608 140.184 103.168C141.384 101.712 141.984 99.792 141.984 97.408C141.984 95.968 141.76 94.672 141.312 93.52C140.88 92.352 140.248 91.456 139.416 90.832C138.584 90.192 137.656 89.872 136.632 89.872C135.496 89.872 134.576 90.168 133.872 90.76C132.88 91.608 132.384 92.688 132.384 94C132.384 94.416 132.44 94.84 132.552 95.272H132.288Z" fill="#EFCD64"/>
<defs>
<filter id="filter0_f_633_11861" x="30.5" y="12" width="86" height="86" filterUnits="userSpaceOnUse" color-interpolation-filters="sRGB">
<feFlood flood-opacity="0" result="BackgroundImageFix"/>
<feBlend mode="normal" in="SourceGraphic" in2="BackgroundImageFix" result="shape"/>
<feGaussianBlur stdDeviation="2" result="effect1_foregroundBlur_633_11861"/>
</filter>
<radialGradient id="paint0_radial_633_11861" cx="0" cy="0" r="1" gradientUnits="userSpaceOnUse" gradientTransform="translate(73.5 55) rotate(90) scale(39)">
<stop stop-color="#D7AA23"/>
<stop offset="1" stop-color="#FFD964" stop-opacity="0"/>
</radialGradient>
</defs>
</svg>
